# AST/ASF file generated using VICON BodyLanguage
# -----------------------------------------------
:version 1.10
:name VICON
:units
  mass 1.0
  length 0.45
  angle deg
:documentation
   .ast/.asf automatically generated from VICON data using
   VICON BodyBuilder and BodyLanguage model FoxedUp or BRILLIANT.MOD
:root
   order TX TY TZ RX RY RZ
   axis XYZ
   position 0 0 0  
   orientation 0 0 0 
:bonedata
  begin
     id 1 
     name lhipjoint
     direction 0.700308 -0.549349 0.455834 
     length 2.59063 
     axis 0 0 0  XYZ
  end
  begin
     id 2 
     name lfemur
     direction 0.34202 -0.939693 0  
     length 6.31066  
     axis 0 0 20  XYZ
    dof rx ry rz
    limits (-160.0 20.0)
           (-70.0 70.0)
           (-60.0 70.0)
  end
  begin
     id 3 
     name ltibia
     direction 0.34202 -0.939693 0   
     length 7.36093   
     axis 0 0 20   XYZ
    dof rx
    limits (-10.0 170.0)
  end
  begin
     id 4 
     name lfoot
     direction 0.0905332 -0.248738 0.96433   
     length 2.0233   
     axis -90 7.62852e-016 20   XYZ
    dof rx rz
    limits (-45.0 90.0)
           (-70.0 20.0)
  end
  begin
     id 5 
     name ltoes
     direction 1.53573e-011 -4.21855e-011 1   
     length 1.01524   
     axis -90 7.62852e-016 20   XYZ
    dof rx
    limits (-90.0 20.0)
  end
  begin
     id 6 
     name rhipjoint
     direction -0.61416 -0.607328 0.503944   
     length 2.34332  
     axis 0 0 0  XYZ 
  end
  begin
     id 7 
     name rfemur
     direction -0.34202 -0.939693 0   
     length 6.58548   
     axis 0 0 -20   XYZ
    dof rx ry rz
    limits (-160.0 20.0)
           (-70.0 70.0)
           (-70.0 60.0)
  end
  begin
     id 8 
     name rtibia
     direction -0.34202 -0.939693 0   
     length 7.20707   
     axis 0 0 -20   XYZ
    dof rx
    limits (-10.0 170.0)
 end
 begin
     id 9 
     name rfoot
     direction -0.136772 -0.375778 0.916561   
     length 1.92184  
     axis -90 -7.62852e-016 -20   XYZ
    dof rx rz
    limits (-45.0 90.0)
           (-20.0 70.0)
  end
  begin
     id 10 
     name rtoes
     direction -1.53535e-011 -4.21828e-011 1   
     length 0.951089   
     axis -90 -7.62852e-016 -20   XYZ
    dof rx
    limits (-90.0 20.0)
  end
  begin
     id 11 
     name lowerback
     direction -0.0444974 0.988086 -0.147332   
     length 1.9609   
     axis 0 0 0   XYZ
    dof rx ry rz
    limits (-20.0 45.0)
           (-30.0 30.0)
           (-30.0 30.0)
  end
  begin
     id 12 
     name upperback
     direction 0.00613146 0.999513 0.0306081   
     length 1.94944   
     axis 0 0 0   XYZ
    dof rx ry rz
    limits (-20.0 45.0)
           (-30.0 30.0)
           (-30.0 30.0)
  end
  begin
     id 13 
     name thorax
     direction 0.0254621 0.994518 0.101418   
     length 2.0119   
     axis 0 0 0   XYZ
    dof rx ry rz
    limits (-20.0 45.0)
           (-30.0 30.0)
           (-30.0 30.0)
  end
  begin
     id 14 
     name lowerneck
     direction 0.0168698 0.977854 0.208608   
     length 1.6375   
     axis 0 0 0   XYZ
    dof rx ry rz
    limits (-20.0 45.0)
           (-30.0 30.0)
           (-30.0 30.0)
  end
  begin
     id 15 
     name upperneck
     direction -0.0283988 0.989338 -0.142843   
     length 1.6851   
     axis 0 0 0   XYZ
    dof rx ry rz
    limits (-20.0 45.0)
           (-30.0 30.0)
           (-30.0 30.0)
  end
  begin
     id 16
     name head
     direction -0.0129422 0.99741 -0.0707489  
     length 1.69029  
     axis 0 0 0   XYZ
    dof rx ry rz
    limits (-20.0 45.0)
           (-30.0 30.0)
           (-30.0 30.0)
  end
  begin
     id 17 
     name lclavicle
     direction 0.820295 0.564628 -0.0911715  
     length 3.16484  
     axis 0 0 0   XYZ
    dof ry rz
    limits (-20.0 10.0)
           (0.0 20.0)
  end
  begin
     id 18 
     name lhumerus
     direction 1 -4.48969e-011 1.00186e-027   
     length 5.17853   
     axis 180 -30 -90   XYZ
    dof rx ry rz
    limits (-60.0 90.0)
           (-90.0 90.0)
           (-90.0 90.0)
  end
  begin
     id 19
     name lradius
     direction 1 -4.48966e-011 -1.52922e-027   
     length 3.40399   
     axis 180 -30 -90   XYZ
    dof rx
    limits (-10.0 170.0)
  end
  begin
     id 20
     name lwrist
     direction 1 -4.48981e-011 -3.80893e-027   
     length 1.70199   
     axis 1.1049e-015 90 90   XYZ
    dof ry
    limits (-180.0 0.0)
 end
  begin
     id 21 
     name lhand
     direction 1 -4.48957e-011 -7.61786e-027   
     length 0.708964   
     axis 4.86085e-015 90 90   XYZ
    dof rx rz
    limits (-90.0 90.0)
           (-45.0 45.0)
  end
  begin
     id 22 
     name lfingers
     direction 1 -4.48929e-011 -1.52357e-026   
     length 0.571585   
     axis 9.7217e-015 90 90   XYZ
    dof rx
    limits (0.0 90.0)
  end
  begin
     id 23
     name lthumb
     direction 0.707107 -6.34905e-011 0.707107   
     length 0.820685   
     axis -90 45 2.85299e-015   XYZ
    dof rx rz
    limits (-45.0 45.0)
           (-45.0 45.0)
  end
  begin
     id 24 
     name rclavicle
     direction -0.858602 0.463947 -0.218075   
     length 3.35137  
     axis 0 0 0   XYZ 
    dof ry rz
    limits (-10.0 20.0)
           (-20.0 0.0)
  end
  begin
     id 25 
     name rhumerus
     direction -1 -4.48969e-011 -1.98511e-027  
     length 5.42351   
     axis 180 30 90   XYZ
    dof rx ry rz
    limits (-90.0 60.0)
           (-90.0 90.0)
           (-90.0 90.0)
  end
  begin
     id 26 
     name rradius
     direction -1 -4.48961e-011 -2.82624e-027   
     length 3.42066   
     axis 180 30 90   XYZ
    dof rx
    limits (-10.0 170.0)
  end
  begin
     id 27 
     name rwrist
     direction -1 -4.48966e-011 -3.80893e-027   
     length 1.71033   
     axis 1.1049e-015 -90 -90   XYZ
    dof ry
    limits (-180.0 0.0)
  end
  begin
     id 28
     name rhand
     direction -1 -4.48964e-011 -7.61786e-027   
     length 0.743608   
     axis 4.86085e-015 -90 -90   XYZ
    dof rx rz
    limits (-90.0 90.0)
           (-45.0 45.0)
  end
  begin
     id 29
     name rfingers
     direction -1 -4.48961e-011 -1.52357e-026   
     length 0.599516   
     axis 9.7217e-015 -90 -90   XYZ
    dof rx
    limits (0.0 90.0)
  end
  begin
     id 30
     name rthumb
     direction -0.707107 -6.34913e-011 0.707107   
     length 0.860789   
     axis -90 -45 -2.85299e-015   XYZ
    dof rx rz
    limits (-45.0 45.0)
           (-45.0 45.0)
  end
:hierarchy
  begin
    root lhipjoint rhipjoint lowerback
    lhipjoint lfemur
    lfemur ltibia
    ltibia lfoot
    lfoot ltoes
    rhipjoint rfemur
    rfemur rtibia
    rtibia rfoot
    rfoot rtoes
    lowerback upperback
    upperback thorax
    thorax lowerneck lclavicle rclavicle
    lowerneck upperneck
    upperneck head
    lclavicle lhumerus
    lhumerus lradius
    lradius lwrist
    lwrist lhand lthumb
    lhand lfingers
    rclavicle rhumerus
    rhumerus rradius
    rradius rwrist
    rwrist rhand rthumb
    rhand rfingers
  end

#!OML:ASF E:\mmandel\Project 1\Capture day 1\Session 2\Subject.ASF
:FULLY-SPECIFIED
:DEGREES
2004
root 8.48366 14.8998 -0.437891 738.867 80.8967 720.372
lowerback 16.6587 2.41727 -4.48147
upperback 2.21488 2.46971 -0.0881027
thorax -7.14443 1.35774 1.88264
lowerneck -15.9088 1.53318 4.12103
upperneck 10.9101 2.47547 -8.72231
head 6.08044 0.699799 -3.21969
rclavicle -2.04997e-014 -4.6615e-014
rhumerus -13.7656 -4.63457 -80.6383
rradius 55.7357
rwrist -20.5396
rhand -11.0716 26.5085
rfingers 7.12502
rthumb 14.9515 -2.93178
lclavicle -2.04997e-014 -4.6615e-014
lhumerus -11.2626 -11.67 73.0714
lradius 64.8122
lwrist 29.0724
lhand -16.9599 -32.5644
lfingers 7.12502
lthumb 9.27408 -2.78841
rfemur -37.8144 -11.7619 15.1379
rtibia 62.1565
rfoot -40.3618 -10.9003
rtoes -16.9131
lfemur -59.1943 16.1932 -19.5732
ltibia 59.3571
lfoot -15.5147 -4.51103
ltoes 2.47191
2005
root 8.49212 14.8977 -0.451 739.18 80.8299 720.578
lowerback 16.7143 2.38775 -4.61327
upperback 2.11626 2.39732 -0.109748
thorax -7.28085 1.3286 1.94681
lowerneck -16.4727 1.87431 4.48787
upperneck 11.5722 2.96419 -9.19493
head 6.43356 0.89091 -3.39223
rclavicle 3.80176e-015 4.22914e-014
rhumerus -14.054 -4.53642 -80.7321
rradius 55.9793
rwrist -20.5485
rhand -10.9659 26.5925
rfingers 7.12502
rthumb 15.0534 -2.84017
lclavicle 3.80176e-015 4.22914e-014
lhumerus -11.231 -11.6589 73.05
lradius 64.5456
lwrist 29.0138
lhand -17.0003 -32.6103
lfingers 7.12502
lthumb 9.23506 -2.83257
rfemur -37.9157 -11.7234 15.0169
rtibia 62.1332
rfoot -40.376 -10.5934
rtoes -16.1994
lfemur -59.3366 16.138 -19.6684
ltibia 59.4587
lfoot -15.5447 -4.44427
ltoes 3.17055
2006
root 8.50087 14.8976 -0.462175 739.303 80.7267 720.602
lowerback 16.6641 2.27177 -4.93189
upperback 2.05417 2.18597 -0.119841
thorax -7.31652 1.23645 2.16565
lowerneck -15.7856 1.96253 4.60145
upperneck 11.0611 3.02275 -9.11127
head 6.15911 0.955279 -3.37158
rclavicle -5.55355e-015 2.08972e-014
rhumerus -14.1204 -4.18898 -81.0837
rradius 56.0836
rwrist -20.4816
rhand -10.8742 26.7191
rfingers 7.12502
rthumb 15.1417 -2.70701
lclavicle -5.55355e-015 2.08972e-014
lhumerus -11.4269 -11.3344 72.826
lradius 64.5329
lwrist 29.0735
lhand -16.9911 -32.4546
lfingers 7.12502
lthumb 9.24392 -2.67725
rfemur -38.0199 -11.6331 14.9449
rtibia 62.0984
rfoot -40.3114 -10.5245
rtoes -16.0625
lfemur -59.4609 16.1591 -19.7454
ltibia 59.5486
lfoot -15.5583 -4.32158
ltoes 3.3972
2007
root 8.51105 14.9004 -0.473894 738.553 80.6846 719.848
lowerback 16.6199 2.27594 -4.87246
upperback 2.16591 2.21127 -0.115588
thorax -7.17122 1.24391 2.13418
lowerneck -15.9136 1.98294 4.47353
upperneck 11.0212 3.04063 -8.91402
head 6.16378 0.970685 -3.28428
rclavicle 8.92046e-015 1.44119e-014
rhumerus -14.0221 -4.18811 -81.1428
rradius 56.2029
rwrist -20.5142
rhand -10.9691 26.6218
rfingers 7.12502
rthumb 15.0502 -2.81117
lclavicle 8.92046e-015 1.44119e-014
lhumerus -11.1837 -11.4028 72.7991
lradius 64.4821
lwrist 29.0859
lhand -16.9596 -31.97
lfingers 7.12502
lthumb 9.27435 -2.19398
rfemur -37.9418 -11.5777 15.0007
rtibia 62.0177
rfoot -40.2774 -10.4364
rtoes -15.9985
lfemur -59.449 16.2086 -19.6587
ltibia 59.6236
lfoot -15.6025 -4.24101
ltoes 3.5971
2008
root 8.52074 14.9042 -0.486073 737.973 80.766 719.256
lowerback 16.6203 2.34938 -4.60734
upperback 2.28154 2.36309 -0.0949982
thorax -7.04851 1.30779 1.97366
lowerneck -16.3062 1.87988 4.09242
upperneck 11.1003 2.95909 -8.74596
head 6.24116 0.917987 -3.17596
rclavicle 2.66247e-014 3.70858e-015
rhumerus -14.0586 -4.56715 -80.9366
rradius 56.4813
rwrist -20.5378
rhand -11.0339 26.3772
rfingers 7.12502
rthumb 14.9879 -3.06046
lclavicle 2.66247e-014 3.70858e-015
lhumerus -10.7049 -11.8006 73.0124
lradius 64.2177
lwrist 28.9848
lhand -17.0157 -31.8354
lfingers 7.12502
lthumb 9.2202 -2.05696
rfemur -37.8402 -11.6939 15.0758
rtibia 61.9234
rfoot -40.2278 -10.434
rtoes -16.1654
lfemur -59.4518 16.1585 -19.5911
ltibia 59.6658
lfoot -15.6705 -4.26142
ltoes 3.81101
2009
root 8.53012 14.9068 -0.497164 738.112 80.8537 719.336
lowerback 16.6024 2.35965 -4.52018
upperback 2.26493 2.39124 -0.106296
thorax -7.05473 1.31904 1.90607
lowerneck -16.2044 1.79591 4.01375
upperneck 10.8924 2.8797 -8.91321
head 6.15504 0.870463 -3.22311
rclavicle -4.18273e-015 -1.12906e-014
rhumerus -14.3782 -4.7835 -80.8668
rradius 56.9267
rwrist -20.6179
rhand -10.8272 26.2386
rfingers 7.12502
rthumb 15.1869 -3.18403
lclavicle -4.18273e-015 -1.12906e-014
lhumerus -10.536 -12.072 73.1525
lradius 63.9376
lwrist 28.9544
lhand -16.9856 -32.2689
lfingers 7.12502
lthumb 9.24927 -2.49176
rfemur -37.8251 -11.8386 15.0519
rtibia 61.8504
rfoot -40.1534 -10.487
rtoes -16.4888
lfemur -59.5175 16.1051 -19.6778
ltibia 59.6717
lfoot -15.6333 -4.25839
ltoes 3.03994
2010
root 8.54074 14.9101 -0.507669 739.111 80.8004 720.256
lowerback 16.5618 2.38541 -4.68309
upperback 2.20305 2.38904 -0.183997
thorax -7.10223 1.3223 1.91543
lowerneck -16.0806 1.76858 4.19164
upperneck 10.833 2.84667 -9.1989
head 6.1208 0.844774 -3.34771
rclavicle -5.0628e-015 1.19457e-014
rhumerus -14.7268 -4.78684 -80.874
rradius 57.2792
rwrist -20.7728
rhand -10.7646 26.3609
rfingers 7.12502
rthumb 15.2473 -3.05723
lclavicle -5.0628e-015 1.19457e-014
lhumerus -10.5223 -12.245 73.1749
lradius 63.7474
lwrist 29.0259
lhand -16.8435 -32.7075
lfingers 7.12502
lthumb 9.38635 -2.93647
rfemur -37.89 -11.9369 14.8608
rtibia 61.8003
rfoot -40.0022 -10.6592
rtoes -17.1858
lfemur -59.5661 16.1191 -19.9456
ltibia 59.6567
lfoot -15.5762 -4.26217
ltoes 2.67475
2011
root 8.55098 14.9123 -0.516962 739.787 80.7212 720.873
lowerback 16.5613 2.41034 -4.87505
upperback 2.19581 2.38273 -0.248427
thorax -7.11413 1.32396 1.95615
lowerneck -16.2386 1.75604 4.34437
upperneck 10.8798 2.81166 -9.30992
head 6.16357 0.820862 -3.41344
rclavicle -6.26172e-015 -1.57288e-014
rhumerus -14.7943 -4.78395 -80.9307
rradius 57.4209
rwrist -20.7861
rhand -10.8523 26.5943
rfingers 7.12502
rthumb 15.1627 -2.8302
lclavicle -6.26172e-015 -1.57288e-014
lhumerus -10.3389 -12.3105 73.1226
lradius 63.5161
lwrist 29.0638
lhand -16.857 -32.6855
lfingers 7.12502
lthumb 9.37328 -2.91393
rfemur -37.932 -11.9785 14.7105
rtibia 61.7521
rfoot -39.8665 -10.8568
rtoes -17.8615
lfemur -59.574 16.1431 -20.1268
ltibia 59.6496
lfoot -15.5805 -4.35303
ltoes 3.5587
2012
root 8.56002 14.9122 -0.525527 738.859 80.748 719.921
lowerback 16.5709 2.38717 -4.79718
upperback 2.23239 2.36865 -0.236571
thorax -7.07627 1.31445 1.92861
lowerneck -16.274 1.76382 4.35528
upperneck 10.7126 2.79153 -9.22304
head 6.1135 0.819903 -3.38738
rclavicle -6.23687e-015 6.36111e-015
rhumerus -14.8008 -4.91898 -81.0729
rradius 57.6857
rwrist -20.5667
rhand -10.8387 26.7032
rfingers 7.12502
rthumb 15.1759 -2.72029
lclavicle -6.23687e-015 6.36111e-015
lhumerus -10.0412 -12.3445 73.0524
lradius 63.1979
lwrist 29.0252
lhand -16.9155 -32.1758
lfingers 7.12502
lthumb 9.31685 -2.40168
rfemur -37.8614 -11.9089 14.8087
rtibia 61.6835
rfoot -39.9049 -10.6445
rtoes -17.3615
lfemur -59.5866 16.1592 -19.976
ltibia 59.677
lfoot -15.6014 -4.3918
ltoes 3.99207
